<?xml version="1.0" encoding="utf-8"?>

<!DOCTYPE svg PUBLIC "-//W3C//DTD SVG 1.1//EN" "http://www.w3.org/Graphics/SVG/1.1/DTD/svg11.dtd">
<!-- Uploaded to: SVG Repo, www.svgrepo.com, Generator: SVG Repo Mixer Tools -->
<svg fill="#000000" version="1.1" id="Layer_1" xmlns="http://www.w3.org/2000/svg" xmlns:xlink="http://www.w3.org/1999/xlink" 
	 width="800px" height="800px" viewBox="0 0 70 70" enable-background="new 0 0 70 70" xml:space="preserve">
<g>
	<g>
		<path d="M28.034,67.583c0,0-0.001,0-0.002,0c-6.566,0-12.757-2.835-17.432-7.509l-0.263-0.392
			c-9.815-9.814-9.815-25.845-0.003-35.655l15.58-15.613c0.375-0.375,0.884-0.602,1.414-0.602l0,0c0.53,0,1.039,0.203,1.414,0.578
			l11.473,11.47c0.781,0.781,0.781,2.045,0,2.827L26.899,36.001c-0.887,0.887-1.362,2.095-1.339,3.405
			c0.022,1.303,0.556,2.57,1.462,3.477c0.93,0.93,2.229,1.462,3.563,1.462c1.276,0,2.455-0.476,3.319-1.339l13.315-13.317
			c0.75-0.75,2.078-0.75,2.828,0l11.474,11.474c0.375,0.375,0.586,0.884,0.586,1.414s-0.211,1.039-0.586,1.414l-15.58,15.838
			C41.109,64.662,34.749,67.583,28.034,67.583z M27.329,12.624L13.163,26.79c-8.252,8.253-8.252,21.68,0,29.933l0.263,0.262
			c3.922,3.921,9.108,6.079,14.607,6.08h0.001c5.647,0,11.002-2.245,15.08-6.323L57.28,42.576l-8.646-8.646L36.733,45.834
			c-1.619,1.619-3.803,2.511-6.147,2.511c-2.389,0.001-4.719-0.96-6.392-2.634c-1.657-1.656-2.593-3.87-2.634-6.234
			c-0.042-2.406,0.85-4.645,2.511-6.305L35.974,21.27L27.329,12.624z"/>
	</g>
	<g>
		<path d="M15.331,55.977c-0.255,0-0.511-0.097-0.705-0.291l-0.209-0.208c-3.644-3.644-5.649-8.485-5.649-13.635
			s2.006-9.991,5.647-13.632l5.113-5.114c0.391-0.391,1.023-0.391,1.414,0s0.391,1.023,0,1.414l-5.113,5.114
			c-3.264,3.264-5.062,7.603-5.062,12.218s1.798,8.955,5.062,12.219l0.207,0.206c0.392,0.39,0.394,1.023,0.004,1.414
			C15.845,55.878,15.588,55.977,15.331,55.977z"/>
	</g>
	<g>
		<path d="M25.111,19.929c-0.256,0-0.512-0.098-0.707-0.293c-0.391-0.391-0.391-1.023,0-1.414l2.304-2.305
			c0.391-0.391,1.023-0.391,1.414,0s0.391,1.023,0,1.414l-2.304,2.305C25.623,19.831,25.367,19.929,25.111,19.929z"/>
	</g>
	<g>
		<path d="M43.718,18.353c-0.512,0-1.023-0.195-1.414-0.586L30.831,6.294c-0.781-0.781-0.781-2.047,0-2.828s2.047-0.781,2.828,0
			l11.473,11.473c0.781,0.781,0.781,2.047,0,2.828C44.741,18.157,44.229,18.353,43.718,18.353z"/>
	</g>
	<g>
		<path d="M65.024,39.659c-0.512,0-1.023-0.195-1.414-0.586L52.138,27.601c-0.781-0.781-0.781-2.047,0-2.828s2.047-0.781,2.828,0
			l11.473,11.473c0.781,0.781,0.781,2.047,0,2.828C66.048,39.464,65.536,39.659,65.024,39.659z"/>
	</g>
</g>
</svg>