<svg width="56" height="56" viewBox="0 0 56 56" fill="none" xmlns="http://www.w3.org/2000/svg">
    <path d="M12 5.6C12 4.71634 11.2837 4 10.4 4C9.51634 4 8.8 4.71634 8.8 5.6V8.8H5.6C4.71634 8.8 4 9.51634 4 10.4C4 11.2837 4.71634 12 5.6 12H8.8V32.8C8.8 40.7529 15.2471 47.2 23.2 47.2H44V50.4C44 51.2837 44.7163 52 45.6 52C46.4837 52 47.2 51.2837 47.2 50.4V47.2H50.4C51.2837 47.2 52 46.4837 52 45.6C52 44.7163 51.2837 44 50.4 44H47.2V23.2C47.2 15.2471 40.7529 8.8 32.8 8.8H12V5.6Z" fill="#FFC59B"/>
</svg>
