<svg width="56" height="56" viewBox="0 0 56 56" fill="none" xmlns="http://www.w3.org/2000/svg">
    <path d="M25.3832 49.7053C25.3757 49.6977 25.3701 48.5622 25.3701 47.18C25.3701 45.6258 25.3626 44.6681 25.3513 44.6681C25.3419 44.6681 25.3307 44.6356 25.3269 44.5954L25.3213 44.5228L20.0557 44.5113L20.0444 39.1051L14.7413 39.0936L14.7301 33.6683L9.42699 33.6568V31.0168C9.42699 29.2695 9.42137 28.3768 9.40824 28.3768C9.39699 28.3768 9.38949 28.3558 9.38949 28.329V28.2812H4V17.3924L9.39669 17.3809L9.40794 11.8983L14.7297 11.8868L14.741 6.48055H25.4033V11.879H28.2686V15.0409L28.4355 14.6146C28.8556 13.5478 29.2625 12.745 29.8326 11.8579C30.3314 11.0818 30.8301 10.449 31.4827 9.77041C32.5291 8.68265 33.5792 7.90653 34.8993 7.24317C35.8013 6.79011 36.6714 6.48232 37.6502 6.26821C38.4697 6.08852 39.0585 6.0197 39.8892 6.00249C41.785 5.96426 43.5327 6.36571 45.211 7.22596C47.2137 8.25064 48.8283 9.80669 50.0398 11.877C50.7974 13.1712 51.3918 14.735 51.7462 16.3656C51.9413 17.2603 51.9844 17.614 51.9975 18.4303C52.0031 18.8107 51.9994 19.151 51.9844 19.3498C51.7931 22.0261 50.6736 25.0081 48.5715 28.4475C46.9589 31.0856 44.6149 34.1268 41.8509 37.1703C40.8026 38.325 39.0118 40.1812 37.8661 41.3033C35.5728 43.5476 33.3731 45.5472 30.8454 47.6864C30.0578 48.3536 29.0696 49.1679 28.5596 49.5713L28.3889 49.7071L26.8888 49.7128C26.0637 49.7166 25.383 49.7128 25.3755 49.7051L25.3832 49.7053Z" fill="#FFC59B"/>
</svg>
