<svg width="56" height="56" viewBox="0 0 56 56" fill="none" xmlns="http://www.w3.org/2000/svg">
    <path d="M40.8388 27.9999C40.8388 31.4059 39.4845 34.6702 37.0774 37.0775C34.6703 39.4846 31.406 40.8389 27.9999 40.8389C24.5938 40.8389 21.3297 39.4846 18.9223 37.0775C16.5152 34.6703 15.1609 31.4061 15.1609 27.9999C15.1609 24.5938 16.5153 21.3297 18.9223 18.9224C21.3295 16.5152 24.5938 15.161 27.9999 15.161C31.4037 15.1677 34.6655 16.522 37.0705 18.9292C39.4777 21.3341 40.832 24.5962 40.8388 27.9999ZM50.4382 31.8401L46.5508 35.7028V41.1267H46.5485C46.5485 44.1255 44.1256 46.5597 41.1268 46.5731H35.7028L31.8402 50.4358C29.7053 52.5212 26.2948 52.5212 24.1598 50.4358L20.2972 46.5731H14.8732C11.8744 46.5596 9.4515 44.1255 9.4515 41.1267V35.7028L5.56408 31.8401C3.47864 29.7052 3.47864 26.2947 5.56408 24.1597L9.4515 20.2971V14.8731C9.4515 11.8744 11.8744 9.44021 14.8732 9.42673H20.2972L24.1598 5.56408C26.2947 3.47864 29.7052 3.47864 31.8402 5.56408L35.7028 9.42673H41.1268C44.1256 9.44023 46.5485 11.8744 46.5485 14.8731V20.2971L50.4359 24.1597C52.5214 26.2947 52.5214 29.7052 50.4359 31.8401H50.4382ZM48.0378 26.5129L43.6936 22.1688C43.3854 21.8539 43.2145 21.4332 43.2145 20.9922V14.8731C43.2145 13.7213 42.2786 12.7855 41.1268 12.7855H35.0077C34.5668 12.7855 34.1461 12.6145 33.8311 12.3063L29.4645 7.93971C28.6434 7.13659 27.3319 7.13659 26.513 7.93971L22.1689 12.3063C21.8539 12.6145 21.4332 12.7855 20.9923 12.7855H14.8732C13.7214 12.7855 12.7855 13.7213 12.7855 14.8731V20.9922C12.7855 21.4332 12.6145 21.8538 12.3063 22.1688L7.93975 26.5354C7.13664 27.3565 7.13664 28.6681 7.93975 29.4869L12.2839 33.8311H12.2816C12.5898 34.146 12.763 34.5667 12.763 35.0077V41.1267C12.763 42.2786 13.6967 43.2144 14.8507 43.2144H20.9923C21.4332 43.2144 21.8539 43.3854 22.1689 43.6936L26.5354 48.0602C27.3566 48.8633 28.6681 48.8633 29.487 48.0602L33.8311 43.7161V43.7183C34.1461 43.4101 34.5667 43.2369 35.0077 43.2369H41.1268C41.6802 43.2369 42.2111 43.0187 42.6026 42.6272C42.994 42.2335 43.2145 41.7026 43.2145 41.1492V35.0077C43.2145 34.5667 43.3854 34.146 43.6936 33.8311L48.0602 29.4869C48.8588 28.6523 48.8476 27.3341 48.0378 26.5129Z" fill="#FFC59B"/>
</svg>
