<svg width="44" height="45" viewBox="0 0 44 45" fill="none" xmlns="http://www.w3.org/2000/svg">
    <path d="M44.64 46.1L33.36 34.82C31.72 36.1 29.91 37.1 27.93 37.82C25.95 38.54 23.84 38.9 21.6 38.9C18 38.9 14.75 38.02 11.85 36.26C8.95 34.5 6.66 32.18 4.98 29.3H10.86C12.22 30.78 13.81 31.95 15.63 32.81C17.45 33.67 19.44 34.1 21.6 34.1C25.6 34.1 29 32.7 31.8 29.9C34.6 27.1 36 23.7 36 19.7C36 15.7 34.6 12.3 31.8 9.5C29 6.7 25.6 5.3 21.6 5.3C17.84 5.3 14.59 6.57 11.85 9.11C9.11 11.65 7.58 14.78 7.26 18.5H2.46C2.78 13.42 4.77 9.15 8.43 5.69C12.09 2.23 16.48 0.5 21.6 0.5C26.96 0.5 31.5 2.36 35.22 6.08C38.94 9.8 40.8 14.34 40.8 19.7C40.8 21.94 40.44 24.05 39.72 26.03C39 28.01 38 29.82 36.72 31.46L48 42.74L44.64 46.1ZM19.02 29.3L15.24 16.82L12.12 25.7H0V22.1H9.6L13.56 10.7H17.16L20.82 22.94L23.4 14.9H27L30.6 22.1H32.4V25.7H28.38L25.56 20.06L22.56 29.3H19.02Z" fill="#FFC59B"/>
</svg>
