<svg width="56" height="56" viewBox="0 0 56 56" fill="none" xmlns="http://www.w3.org/2000/svg">
    <path fill-rule="evenodd" clip-rule="evenodd" d="M17.3418 6C23.05 6 27.6837 10.6751 27.6837 16.4363C27.6837 22.1953 23.0499 26.8703 17.3418 26.8703C11.6337 26.8703 7 22.1952 7 16.4363C7 10.675 11.6338 6 17.3418 6ZM38.2145 8.73166C38.2145 8.73166 38.7983 7.47126 40.2566 7.47126C41.7126 7.47126 42.3054 8.72251 42.3054 8.72251L49.4333 22.5826C49.4333 22.5826 50.0307 23.74 49.3561 24.8583C48.6815 25.9812 47.389 25.9766 47.389 25.9766H33.1971C33.1971 25.9766 31.8729 25.9239 31.2323 24.8629C30.5917 23.8041 31.1505 22.5918 31.1505 22.5918L38.2145 8.73166ZM22.5689 30.0144C24.9039 30.0144 26.7983 31.9256 26.7983 34.2815V44.8322C26.7983 47.188 24.9039 49.0947 22.5689 49.0947H12.1154C9.78035 49.0947 7.88596 47.188 7.88596 44.8322V34.2815C7.88596 31.9256 9.78035 30.0144 12.1154 30.0144H22.5689ZM37.3562 30.954C38.9872 29.4071 41.5312 29.4071 43.1621 30.954L48.4728 35.9888C49.6653 37.114 50.1059 38.8328 49.6107 40.4026L47.5233 47.0208C46.9645 48.7946 45.3291 50 43.4824 50H37.036C35.1893 50 33.5561 48.7946 32.9973 47.0208L30.9099 40.4026C30.4147 38.8328 30.8554 37.114 32.0456 35.9888L37.3562 30.954Z" fill="#FFC59B"/>
</svg>
