<svg width="56" height="56" viewBox="0 0 56 56" fill="none" xmlns="http://www.w3.org/2000/svg">
    <path d="M40.1846 36.0603H31.1458C33.1175 34.4929 34.3581 32.0726 34.3581 29.4363C34.3581 24.7785 30.5643 20.9846 25.9064 20.9846C25.4468 20.9846 25.0757 21.3556 25.0757 21.8154V30.8542C23.5083 28.8825 21.088 27.6419 18.4517 27.6419C13.7938 27.6419 10 31.4357 10 36.0936C10 36.5532 10.3711 36.9243 10.8308 36.9243H19.8695C17.8979 38.4917 16.6572 40.912 16.6572 43.5483C16.6572 48.2061 20.4511 52 25.1089 52C25.5686 52 25.9397 51.6289 25.9397 51.1692V42.1304C27.5071 44.1021 29.9274 45.3428 32.5637 45.3428C37.2215 45.3428 41.0154 41.5489 41.0154 36.8911C41.0154 36.4314 40.6443 36.0603 40.1846 36.0603Z" fill="#FFC59B"/>
    <path d="M46.0923 19.0757H37.0535C39.0252 17.5083 40.2658 15.088 40.2658 12.4517C40.2658 7.79383 36.472 4 31.8141 4C31.3545 4 30.9834 4.37103 30.9834 4.83077V13.8696C29.416 11.8979 26.9957 10.6572 24.3594 10.6572C19.7015 10.6572 15.9077 14.4511 15.9077 19.1089C15.9077 19.5686 16.2788 19.9397 16.7385 19.9397H25.7772C23.8055 21.5071 22.5649 23.9274 22.5649 26.5637C22.5649 31.2215 26.3588 35.0154 31.0166 35.0154C31.4763 35.0154 31.8474 34.6443 31.8474 34.1846V25.1458C33.4148 27.1175 35.8351 28.3581 38.4714 28.3581C43.1292 28.3581 46.9231 24.5643 46.9231 19.9064C46.9231 19.4468 46.552 19.0757 46.0923 19.0757Z" fill="#FFC59B"/>
</svg>
