<svg width="56" height="56" viewBox="0 0 56 56" fill="none" xmlns="http://www.w3.org/2000/svg">
    <path d="M43.116 23.0324L35.7794 18.7966C38.1143 18.4484 40.2555 17.0653 41.4909 14.9255C43.6737 11.1448 42.3722 6.28756 38.5915 4.10479C38.2184 3.88937 37.7433 4.01663 37.5279 4.38979L33.2921 11.7264C32.9439 9.39146 31.5608 7.25029 29.421 6.01485C25.6403 3.83208 20.7831 5.13357 18.6003 8.91425C18.3849 9.28735 18.5122 9.76245 18.8853 9.97788L26.2218 14.2136C23.887 14.5619 21.7458 15.945 20.5104 18.0848C18.3276 21.8654 19.6291 26.7227 23.4097 28.9055C23.7828 29.1209 24.258 28.9936 24.4734 28.6205L28.7092 21.2839C29.0574 23.6188 30.4405 25.76 32.5803 26.9954C36.361 29.1782 41.2182 27.8767 43.401 24.096C43.6164 23.7229 43.4891 23.2478 43.116 23.0324Z" fill="#FFC59B"/>
    <path d="M33.051 46.8889L26.7783 43.2674C28.7742 42.9683 30.6054 41.7869 31.6617 39.9574C33.5289 36.7232 32.4168 32.5728 29.1823 30.7053C28.864 30.5215 28.4566 30.6307 28.2729 30.949L24.6513 37.2217C24.3523 35.2258 23.1708 33.3946 21.3413 32.3383C21.0455 32.1675 20.7385 32.0188 20.4278 31.8964C20.086 31.7612 19.6992 31.9292 19.5643 32.2712C19.4292 32.6127 19.5945 33.0009 19.9391 33.1348C20.1889 33.2334 20.4365 33.3534 20.6756 33.4914C22.8883 34.769 23.9213 37.4563 23.132 39.8819C23.0269 40.2061 23.1828 40.5549 23.4942 40.6961C23.8055 40.8348 24.1715 40.7158 24.3418 40.4208L29.073 32.2262C31.2359 33.8554 31.8962 36.8882 30.5086 39.2916C29.231 41.5044 26.5436 42.5373 24.1181 41.748C23.7939 41.6429 23.4425 41.7989 23.3039 42.1102C23.1652 42.4215 23.2842 42.7875 23.5792 42.9579L31.7738 47.689C30.1446 49.8519 27.1118 50.5123 24.7084 49.1247C22.4956 47.8471 21.4627 45.1597 22.252 42.7341C22.3574 42.4101 22.2021 42.0637 21.8898 41.9199C21.5785 41.7812 21.2125 41.9002 21.0421 42.1953L16.311 50.3898C14.148 48.7607 13.4877 45.7279 14.8753 43.3244C16.1529 41.1117 18.8403 40.0787 21.2659 40.868C21.5901 40.9731 21.9414 40.8171 22.0801 40.5058C22.2188 40.1945 22.0998 39.8285 21.8047 39.6582L13.6102 34.927C14.4748 33.7762 15.7552 33.0174 17.209 32.8138C17.5733 32.7628 17.8271 32.4264 17.7761 32.0622C17.725 31.6983 17.3891 31.4443 17.0245 31.4951C14.9385 31.7872 13.1397 32.9983 12.0892 34.8177C11.9055 35.136 12.0146 35.5434 12.3329 35.7271L18.6056 39.3487C16.6097 39.6477 14.7785 40.8292 13.7222 42.6587C11.855 45.8928 12.9671 50.0433 16.2016 51.9108C16.5199 52.0945 16.9273 51.9854 17.1111 51.6671L20.7326 45.3944C21.0317 47.3903 22.2131 49.2215 24.0426 50.2778C27.2768 52.145 31.4272 51.0329 33.2947 47.7984C33.4785 47.4801 33.3693 47.0727 33.051 46.8889Z" fill="#FFC59B"/>
</svg>
