<svg id="Layer_1" viewBox="0 0 84 125" fill="#9c470e" width="100%" enable-background="new 0 0 84 125" version="1.1" xmlns="http://www.w3.org/2000/svg" xmlns:xlink="http://www.w3.org/1999/xlink">
  <path fill="#e46b15" d="M58.7993 34.613c0 0 0.0546 0.4795-0.1966 0.9548-0.9797 1.6803-1.7083 2.8852-2.4368 4.0902-2.564 11.7089 4.715 20.4107 9.3087 29.8533 5.65 11.6139 14.5074 21.9719 17.6442 34.5033 0.6077 2.4282 0.6077 2.3584 0.7526 4.595-0.1039 2.8096-0.1039 2.8096-0.6421 5.8903-2.9981 4.3184-4.4443 7.5915-9.6275 9.0955 0.1327 0.338-0.1272-0.3239 55e-4 0.0142-20.3542 0-40.3158 1-60.7969 0.7485-4.3835-2.7954-8.8581-5.1037-10.8073-10.1397-0.3344 0.1304 0.2521-0.0983-0.0823 0.0321-0.5528-3.0306-0.3007-5.4685 0.3344-9.0144 0.3072-0.5983 0.3072-0.5983 0.4645-0.9046 8.7872-17.1109 17.8561-34.0941 25.9622-51.5247 1.8017-3.8744 0.1476-9.0943-0.2762-14.3735C26 35.4503 27 33.9923 30.0642 34.0173c1.0427-0.025 2.0854-0.05 3.891 0.1347 8.79 0.2934 16.8171 0.3772 24.8441 0.461M59.1706 69.9256c-0.6713-1.3135-1.5124-2.569-1.9841-3.9507-1.8764-5.4966-6.721-9.5976-6.3497-16.2736 0.518-9.3155 0.0804-9.3401-8.5585-11.2003-0.1618-0.0348-0.3298-0.0401-0.4938-0.0657-3.7646-0.5875-5.7309 0.2706-5.9885 4.8214-0.2904 5.1297-1.3596 10.3584-3.0249 15.2242-1.4661 4.2836-4.2428 8.1146-6.4028 12.1658-5.784 10.8485-11.7285 21.6168-17.2606 32.5927-4.2175 8.3678-0.2988 14.3917 8.9278 14.3895 16.8234-4e-3 33.6473 0.052 50.4698-0.0767 2.1929-0.0168 4.6931-0.4722 6.5047-1.6012 4.2946-2.6764 4.9995-6.2507 2.1423-11.9031-5.6865-11.2495-11.695-22.3362-17.9817-34.1223z" />
  <path fill="#eb6a0f" d="M35.8536 15.8674c8.7841-4.3824 13.3719-3.1801 16.3773 3.957 2.2976 5.4561-2.1805 12.0481-8.0599 11.8645-10.3415-0.323-13.3708-5.7994-8.3174-15.8215z" />
  <path fill="#e36a14" d="M62.5362 12.7245c-6.5815 2.1629-9.5388 1.0784-9.2689-3.4054 0.1249-2.076 1.3221-5.2316 2.8356-5.8146 2.3302-0.8977 5.5236-1.6551 7.7408 1.7108 2.0017 3.0386 1.3244 5.1074-1.3075 7.5092z" />
  <path d="M58.6284 35.6208c-7.8561 0.2989-15.8832 0.2151-24.2835-0.0394 7.7886-0.2282 15.9506-0.2858 24.2835 0.0394z" />
  <path d="M56.4866 40.9075c0.4078-1.064 1.1364-2.269 2.0714-3.7122-0.446 1.0316-1.0983 2.3015-2.0714 3.7122z" />
  <path fill="#f66c09" d="M43.2784 82.1524c2.6133-1.1132 4.7953-2.2587 7.0429-3.2563 4.5305-2.0108 8.8506-0.5398 11.1935 3.8428 4.2413 7.9337 8.4418 15.8893 12.6172 23.8579 2.6284 5.0162 0.5768 9.1955-5.0298 9.262-17.4494 0.2068-34.9037 0.1656-52.3542 0.0106-4.6884-0.0416-6.6793-3.9363-4.4382-8.8519 3.3291-7.302 6.9747-14.4673 10.7173-21.5687 1.1861-2.2504 2.6744-4.2587 6.1896-2.5289 4.4745 2.202 9.2055 1.4495 14.0617-0.7675z" />
  <path fill="#f16f11" d="M42.438 72.5369c0.0259 1.5551-0.3597 2.8137-0.4156 4.0867-0.1861 4.2335-3.0363 4.5053-6.237 4.373-4.0357-0.1668-5.3532-3.2152-4.4747-6.0664 0.624-2.0252 3.4095-3.9155 5.6423-4.7139 1.3294-0.4754 3.4561 1.2788 5.485 2.3205z" />
  <path fill="#d66615" d="M48.5236 67.8295c-2.0649-0.7956-4.8803-1.3526-5.1194-2.4639-0.3986-1.8531 0.8519-4.061 1.4081-6.1195 2.009 0.5765 4.6618 0.5488 5.8904 1.8578 2.4052 2.5624 0.8562 4.9893-2.1791 6.7256z" />
</svg>