<?xml version="1.0" encoding="UTF-8" standalone="no"?>
<!-- Created with Inkscape (http://www.inkscape.org/) -->
<svg id="svg4155" xmlns:rdf="http://www.w3.org/1999/02/22-rdf-syntax-ns#" xmlns="http://www.w3.org/2000/svg" xml:space="preserve" viewBox="0 0 155 155" version="1.1" xmlns:cc="http://creativecommons.org/ns#" xmlns:dc="http://purl.org/dc/elements/1.1/"><metadata id="metadata4161"><rdf:RDF><cc:Work rdf:about=""><dc:format>image/svg+xml</dc:format><dc:type rdf:resource="http://purl.org/dc/dcmitype/StillImage"/><dc:title/></cc:Work></rdf:RDF></metadata><defs id="defs4159"><clipPath id="clipPath4171" clipPathUnits="userSpaceOnUse"><path id="path4173" d="m0 0h124v124h-124v-124z"/></clipPath></defs><g id="g4163" transform="matrix(1.25,0,0,-1.25,0,155)"><g id="g4167"><g id="g4169" clip-path="url(#clipPath4171)"><path id="path4175" style="fill:#e01e5a" d="m26.4 45.8c0-7.1-5.8-12.9-12.9-12.9s-12.9 5.8-12.9 12.9 5.8 12.9 12.9 12.9h12.9v-12.9z"/><path id="path4177" style="fill:#e01e5a" d="m32.9 45.8c0 7.1 5.8 12.9 12.9 12.9s12.9-5.8 12.9-12.9v-32.3c0-7.1-5.8-12.9-12.9-12.9s-12.9 5.8-12.9 12.9v32.3z"/><path id="path4179" style="fill:#36c5f0" d="m45.8 97.6c-7.1 0-12.9 5.8-12.9 12.9s5.8 12.9 12.9 12.9 12.9-5.8 12.9-12.9v-12.9h-12.9z"/><path id="path4181" style="fill:#36c5f0" d="m45.8 91.1c7.1 0 12.9-5.8 12.9-12.9s-5.8-12.9-12.9-12.9h-32.3c-7.1 0-12.9 5.8-12.9 12.9s5.8 12.9 12.9 12.9h32.3z"/><path id="path4183" style="fill:#2eb67d" d="m97.6 78.2c0 7.1 5.8 12.9 12.9 12.9s12.9-5.8 12.9-12.9-5.8-12.9-12.9-12.9h-12.9v12.9z"/><path id="path4185" style="fill:#2eb67d" d="m91.1 78.2c0-7.1-5.8-12.9-12.9-12.9s-12.9 5.8-12.9 12.9v32.3c0 7.1 5.8 12.9 12.9 12.9s12.9-5.8 12.9-12.9v-32.3z"/><path id="path4187" style="fill:#ecb22e" d="m78.2 26.4c7.1 0 12.9-5.8 12.9-12.9s-5.8-12.9-12.9-12.9-12.9 5.8-12.9 12.9v12.9h12.9z"/><path id="path4189" style="fill:#ecb22e" d="m78.2 32.9c-7.1 0-12.9 5.8-12.9 12.9s5.8 12.9 12.9 12.9h32.3c7.1 0 12.9-5.8 12.9-12.9s-5.8-12.9-12.9-12.9h-32.3z"/></g></g></g></svg>
