<svg xmlns="http://www.w3.org/2000/svg" viewBox="0 0 118 32" fill="none" class="w-[118px]"><g clip-path="url(#logoColorSvg)"><path fill="#FA5300" d="M5.236.115c-.433.15-.848.464-1.093.835-.41.613-.377-.363-.377 11.392l.005 10.568.933.536c.51.298.949.542.965.542.021 0 .038-4.92.038-10.934 0-10.526.005-10.946.099-11.028.155-.144.254-.116.815.208.282.167.527.306.544.306.073 0 1.875-1.085 1.875-1.134C9.05 1.328 6.998.173 6.682.079c-.393-.122-1.043-.105-1.448.033l.002.003Z"></path><path fill="#99918D" d="M13.528.164c-.372.094-.7.27-3.716 2.007L6.79 3.906 6.773 14.83 6.762 25.75l-.987-.57c-.537-.31-1.449-.84-2.019-1.172l-1.043-.603V14.85c0-4.704-.017-8.552-.033-8.552-.09 0-1.67.934-1.87 1.106-.311.265-.615.758-.726 1.171C0 8.9-.01 9.552.007 16.117l.016 7.186.205.415c.306.608.615.878 1.875 1.615 3.95 2.3 4.974 2.885 5.08 2.885.066 0 1.658-.885 3.533-1.962l3.417-1.963.017-3.732c.016-3.533.021-3.742.122-3.979.189-.441.488-.84.81-1.073.172-.126 1.637-.983 3.263-1.913 1.62-.93 2.944-1.713 2.95-1.746 0-.038-.037-.078-.082-.099-.09-.033-11.797-6.749-11.962-6.854-.078-.057.221-.25 1.858-1.195 1.077-.625 2.002-1.134 2.063-1.127.062 0 2.83 1.57 6.145 3.488l6.034 3.489.234-.134a.98.98 0 0 1 1.481.845v.27l.544.314c.306.172.565.315.582.315.066 0 .044-2.078-.021-2.387-.095-.442-.41-1.007-.738-1.299C27.123 7.2 15.283.356 14.887.23 14.61.136 13.79.096 13.533.164h-.005Z"></path><path fill="#FA5300" d="M12.214 4.244c-.528.294-.954.56-.954.592 0 .028 4.242 2.493 9.428 5.472 5.568 3.195 9.468 5.472 9.522 5.55.122.182.056.26-.478.574l-.455.266v1.133c0 .625.017 1.122.045 1.11.848-.48 1.969-1.138 2.1-1.243.1-.073.279-.277.401-.454.61-.917.495-2.206-.266-2.884-.205-.184-10.1-5.916-18.225-10.552l-.167-.099-.954.535h.003Z"></path><path fill="#99918D" d="M54.132 9.063c-3.438.432-5.989 2.82-6.521 6.108-.106.641-.106 1.902 0 2.543.52 3.21 2.845 5.478 6.185 6.035.716.115 2.136.115 2.828-.005.288-.05.744-.15 1.003-.228 2.396-.68 4.287-2.476 5.003-4.76.278-.878.332-1.327.3-2.566-.022-.99-.046-1.2-.168-1.657-.76-2.803-2.873-4.742-5.834-5.362-.643-.134-2.136-.192-2.796-.11v.002Zm2.264 2.378a4.932 4.932 0 0 1 3.606 3.484c.478 1.702.11 3.57-.95 4.88-1.408 1.747-3.815 2.322-5.935 1.42-1.498-.636-2.6-1.99-2.96-3.62-.14-.657-.134-1.79.02-2.415.522-2.117 2.048-3.516 4.217-3.86.466-.072 1.47-.016 2.002.111ZM34.233 9.258c-.111.077-.127.138-.127.432 0 .321.167.758 2.635 6.997 1.56 3.941 2.678 6.704 2.75 6.782.123.134.135.134 1.381.134s1.26 0 1.37-.122c.062-.073.14-.177.173-.238.028-.06 1.22-3.1 2.64-6.755 1.597-4.101 2.584-6.716 2.584-6.834 0-.359-.073-.38-1.298-.359-1.02.017-1.093.021-1.204.134-.077.077-.786 1.995-2.046 5.505-1.06 2.962-1.965 5.439-2.002 5.504-.09.139-.229.16-.316.05-.033-.038-.966-2.533-2.063-5.545-1.482-4.047-2.035-5.5-2.136-5.606-.14-.138-.156-.138-1.183-.155-.88-.011-1.052 0-1.158.073v.003Z"></path><path fill="#99918D" d="M72.367 9.303c-.116.077-.832 1.011-1.913 2.497-1.113 1.542-1.756 2.383-1.83 2.395a.31.31 0 0 1-.193-.057c-.05-.04-.81-1.066-1.686-2.284-.876-1.216-1.675-2.293-1.78-2.394l-.189-.176H63.65c-1.027 0-1.137.011-1.22.098-.139.155-.115.388.066.613.332.425 4.397 6.108 4.454 6.23.045.09.038.167-.021.287-.045.089-1.17 1.603-2.506 3.366-2.386 3.162-2.42 3.206-2.42 3.46v.26h2.43l1.834-2.48c1.01-1.36 1.87-2.51 1.92-2.55a.237.237 0 0 1 .204-.033c.09.021.676.791 1.847 2.42 1.076 1.486 1.797 2.437 1.907 2.514.184.122.234.127 1.414.127 1.293 0 1.363-.012 1.363-.244 0-.155.106 0-2.513-3.627-2.223-3.08-2.324-3.223-2.324-3.46 0-.237.09-.364 2.214-3.272 1.215-1.665 2.251-3.113 2.308-3.223.122-.244.056-.465-.156-.547-.082-.033-.537-.057-1.02-.057-.822 0-.887.005-1.064.127v.01ZM86.754 9.23c-.31.127-.294-.298-.282 7.202l.016 6.883.135.143.134.143h4.442c2.445 0 4.47-.021 4.503-.045.15-.098.188-.31.188-1.06 0-.433-.028-.83-.056-.89-.15-.27-.167-.27-3.484-.27-2.922 0-3.106-.005-3.188-.099-.083-.094-.095-.613-.107-5.915l-.016-5.815-.156-.15-.15-.155-.933-.012c-.511-.005-.982.012-1.048.038l.002.002Z"></path><path fill="#FA5300" d="M113.87 9.258c-.099.045-.36.253-.581.47-.766.758-1.781 1.305-2.923 1.575-.229.056-.511.143-.622.204-.323.155-.377.321-.377 1.094 0 .772.057.934.323 1.044.306.127 1.293-.098 2.186-.502.466-.204.499-.216.626-.134a.43.43 0 0 1 .167.265c.017.099.028 1.89.017 3.975-.017 3.709-.017 3.798-.127 3.92-.217.244-.401.277-1.553.277-1.081 0-1.088 0-1.22.138-.134.127-.139.16-.139.913v.784l.161.16.16.16h3.855c3.59 0 3.861-.005 3.971-.099.116-.09.123-.134.106-.979-.011-.585-.063-.902-.155-.95-.094-.05-.455-.073-1.176-.073h-1.043l-.177-.16-.183-.16-.028-5.838-.029-5.838-.15-.15c-.135-.134-.205-.155-.528-.166-.25-.012-.438.011-.561.065v.005ZM98.24 9.313c-.244.166-.249.232-.232 3.598l.016 3.211.156.2c.31.404.244.392 2.84.432 2.042.021 2.369.037 2.635.127.888.293 1.388.75 1.621 1.493.122.387.139 1.06.045 1.42-.307 1.117-1.392 1.873-2.702 1.873-1.199 0-2.178-.596-2.678-1.631-.31-.637-.315-.637-1.453-.637-1.138 0-1.154.017-1.154.482 0 .248.045.403.238.812.339.713.582 1.073 1.07 1.58.965 1.007 2.145 1.514 3.683 1.587 2.411.11 4.376-.869 5.214-2.604.356-.73.467-1.249.459-2.134-.004-1.847-.814-3.19-2.369-3.92-.888-.415-1.703-.551-3.554-.591-.794-.017-1.51-.057-1.592-.09-.278-.105-.323-.31-.323-1.448s.038-1.322.283-1.493c.115-.077.433-.089 2.96-.089 2.907 0 3.189-.021 3.3-.22.028-.057.057-.466.057-.907 0-.78-.005-.8-.144-.967l-.144-.171h-4.06c-3.467 0-4.077.011-4.171.082v.005Z"></path><path fill="#99918D" d="M76.655 9.425c-.365.16-.348-.237-.332 7.153l.017 6.688.115.155.116.154 4.032.017 4.032.012.078-.193c.099-.232.11-1.305.02-1.57-.122-.338-.105-.338-3.016-.338-1.715 0-2.678-.021-2.751-.057-.1-.056-.106-.138-.106-1.906 0-1.767 0-1.847.122-1.93.111-.077.443-.089 2.53-.089h2.402l.134-.138c.135-.127.14-.16.14-.857 0-.399-.029-.774-.057-.835-.144-.261-.229-.27-2.718-.27-1.503 0-2.374-.022-2.445-.057-.099-.056-.106-.138-.106-1.906 0-1.768 0-1.847.123-1.93.11-.077.466-.089 2.746-.089 2.522 0 2.628-.004 2.73-.105.15-.15.183-.392.16-1.078-.017-.551-.021-.591-.172-.735l-.15-.154-3.734-.012c-3.14-.012-3.754 0-3.91.066v.004ZM27.061 18.815c0 3.448-.004 3.631-.11 3.97-.134.436-.467.913-.815 1.166-.52.371-10.665 6.18-10.86 6.214a.928.928 0 0 1-.787-.22.958.958 0 0 1-.348-.785c0-.138-.017-.249-.033-.249-.073 0-2.85 1.62-2.85 1.657 0 .022.417.282.933.576 1.076.612 1.42.723 2.063.68.228-.016.544-.077.692-.133.156-.061 2.956-1.648 6.234-3.526 4.242-2.437 6.046-3.505 6.256-3.693.372-.343.66-.906.737-1.448.028-.22.057-1.864.057-3.791v-3.411l-.533-.31c-.294-.171-.553-.31-.581-.31-.029 0-.05 1.587-.05 3.615l-.005-.002Z"></path><path fill="#FA5300" d="M16.161 24.272a3833.829 3833.829 0 0 1-9.993 5.733c-.167.077-.188.077-.287-.017-.1-.082-.116-.183-.128-.742l-.016-.64-.916-.536c-.504-.298-.95-.535-.982-.542-.057 0-.073.27-.073 1.172 0 1.692.115 2.129.732 2.708.426.409.799.56 1.432.587.417.017.589 0 .815-.082.155-.056 4.564-2.559 9.8-5.573l9.513-5.471.005-1.123c0-.612-.017-1.117-.045-1.117-.021 0-4.459 2.538-9.857 5.643Z"></path></g><defs><clipPath id="logoColorSvg"><path fill="#fff" d="M0 0h117.903v32H0z"></path></clipPath></defs></svg>