<?xml version="1.0" encoding="UTF-8" standalone="no"?>

<svg xmlns="http://www.w3.org/2000/svg" xmlns:xlink="http://www.w3.org/1999/xlink" version="1.1" x="0px" y="0px" viewBox="0 0 72 90" style="enable-background:new 0 0 72 72;" xml:space="preserve">
  <g>
    <path d="M50.5018921,29.1010132c-0.0078125-0.0310669-0.0187988-0.0601807-0.0285645-0.0905762   c-0.0282593-0.0881958-0.0645752-0.1729736-0.1089478-0.2550659c-0.0147095-0.0271606-0.0275269-0.0544434-0.0438843-0.0806274   c-0.0631104-0.1011963-0.1356812-0.1971436-0.2235107-0.2824097c-0.0065918-0.0064697-0.0148926-0.0109863-0.0216064-0.017334   c-0.0640259-0.0598755-0.1315918-0.1171265-0.2077026-0.1665039l-12.9702148-8.4052734   c-0.5439453-0.4052734-1.3920898-0.3740234-1.8989258,0.0673828l-12.8662109,8.3378906   c-0.0643921,0.041748-0.1199341,0.0914917-0.1756592,0.1408691c-0.0700073,0.0604248-0.1295776,0.1281128-0.1867065,0.199646   c-0.0234985,0.0302124-0.0499268,0.0582275-0.0708618,0.0898438c-0.0487671,0.0715942-0.0874634,0.1472168-0.1231689,0.2262573   c-0.0044556,0.0101318-0.008728,0.0201416-0.0129395,0.0303955c-0.078186,0.1834717-0.1322021,0.3781128-0.1318359,0.5844727   l0.0209961,13.065918c0.0009766,0.5083008,0.2592773,0.9819336,0.6865234,1.2578125l12.7860718,8.2565918   c0.0097046,0.0097046,0.0217285,0.0168457,0.0316772,0.0262451c0.0244751,0.0231934,0.0511475,0.0421753,0.0769043,0.0634766   c0.0626221,0.0519409,0.128418,0.0987549,0.1989746,0.1400757c0.0321045,0.0186768,0.0637207,0.036499,0.0969849,0.0526733   c0.0741577,0.036377,0.1516113,0.0650024,0.2320557,0.0888672c0.0289307,0.0085449,0.0565796,0.0198975,0.0859985,0.0266724   C35.7565308,52.4835815,35.8689575,52.5,35.9858398,52.5c0.0003052,0,0.0004883-0.000061,0.0007935-0.000061   c0.0002441,0,0.0004272,0.000061,0.0006714,0.000061c0.0012207,0,0.0023804-0.0004883,0.0036011-0.0004883   c0.1253052-0.0004272,0.2449951-0.0205078,0.3612671-0.0498047c0.0171509-0.0037231,0.034668-0.0045166,0.0516357-0.0088501   c0.0011597-0.0003662,0.0022583-0.0009766,0.003418-0.0013428c0.0327148-0.0084839,0.062561-0.0256958,0.0947266-0.0363159   c0.0333862-0.0122681,0.0668335-0.0234985,0.0990601-0.0380249c0.1255493-0.0518188,0.2434082-0.1190186,0.3522339-0.2045288   l12.9144287-8.3691406c0.4267578-0.2763672,0.684082-0.7504883,0.684082-1.2587891V29.4672852   c0-0.003479-0.0014038-0.0067139-0.0014038-0.0101929C50.5493774,29.3364258,50.531311,29.2175293,50.5018921,29.1010132z    M25.6469727,41.6518555c-0.4054565-0.0795288-0.8022461-0.1674194-1.1968384-0.2564697l-0.0145874-9.1610107l10.050293,6.4901123   v3.8782349c-0.2636719,0.0332642-0.4501953,0.2194824-0.456543,0.4758911   c-0.0065918,0.2653809,0.1962891,0.4823608,0.456543,0.5056763v4.62146l-8.7097778-5.6243286   c0.1312256-0.0675049,0.2347412-0.1863403,0.2654419-0.3426514C26.0947266,41.9677734,25.9179688,41.7050781,25.6469727,41.6518555   z M37.4858398,43.5907593c0.0227661-0.0005493,0.0460815-0.0003052,0.0688477-0.0009155   c0.2763672-0.0073242,0.4941406-0.2368164,0.4873047-0.5126953c-0.0078125-0.2763672-0.2363281-0.4956055-0.5126953-0.4873047   c-0.0143433,0.0003662-0.0290527,0.0001831-0.043457,0.0005493v-3.8408203l10.065918-6.5230103v9.1679077   c-0.3734131,0.0842896-0.7474976,0.1682739-1.1293945,0.2437134c-0.2705078,0.0537109-0.4467773,0.3168945-0.3935547,0.5878906   c0.0286255,0.1436768,0.119751,0.2548828,0.2362061,0.3250732l-8.7791748,5.68927V43.5907593z M36,22.7963867l10.293396,6.6708374   l-10.2885742,6.6670532L25.6934814,29.475769L36,22.7963867z" />
    <path d="M28.8920898,28.953125c0.0957031,0.1474609,0.2558594,0.2280273,0.4199219,0.2280273   c0.0932617,0,0.1875-0.0258789,0.2714844-0.0805664l4.0649414-2.6347656   c0.2319336-0.1499023,0.2978516-0.4594727,0.1474609-0.6914063c-0.1494141-0.2319336-0.4604492-0.2983398-0.6914063-0.1474609   l-4.0649414,2.6347656C28.8076172,28.4116211,28.7416992,28.7211914,28.8920898,28.953125z" />
    <path d="M35.2216797,25.4467773L36,24.9423828l0.7783203,0.5043945c0.0839844,0.0546875,0.1782227,0.0805664,0.2714844,0.0805664   c0.1640625,0,0.3242188-0.0805664,0.4199219-0.2280273c0.1503906-0.2319336,0.0844727-0.5415039-0.1474609-0.6914063   l-1.0166016-0.6591797c-0.1875-0.144043-0.4848633-0.1313477-0.6552734,0.0288086l-0.9726563,0.6303711   c-0.2319336,0.1499023-0.2978516,0.4594727-0.1474609,0.6914063   C34.6801758,25.5302734,34.9897461,25.5976563,35.2216797,25.4467773z" />
    <path d="M50.6416016,25.1660156c-0.4741211-0.1455078-0.9624023-0.284668-1.4633789-0.4160156   c-0.265625-0.065918-0.5395508,0.0898438-0.6103516,0.3574219c-0.0698242,0.2670898,0.090332,0.5400391,0.3574219,0.6103516   c0.4873047,0.1274414,0.9619141,0.2626953,1.4233398,0.4042969c0.0488281,0.0151367,0.0981445,0.0219727,0.1464844,0.0219727   c0.2138672,0,0.4121094-0.1381836,0.4780273-0.3535156C51.0541992,25.5268555,50.9057617,25.2470703,50.6416016,25.1660156z" />
    <path d="M54.8359375,38.8505859c-0.8076172,0.4277344-1.7138672,0.8310547-2.6928711,1.1987305   c-0.2587891,0.097168-0.3891602,0.3857422-0.2924805,0.644043c0.0756836,0.2006836,0.2661133,0.3242188,0.4682617,0.3242188   c0.0585938,0,0.1181641-0.0102539,0.1757813-0.0317383c1.019043-0.3833008,1.9643555-0.8041992,2.809082-1.2514648   c0.2441406-0.1293945,0.3374023-0.4316406,0.2080078-0.6757813C55.3828125,38.8149414,55.0805664,38.7207031,54.8359375,38.8505859   z" />
    <path d="M56.2768555,27.5996094c-0.8120117-0.4956055-1.737793-0.9638672-2.7509766-1.3920898   c-0.2563477-0.1079102-0.5478516,0.0117188-0.6552734,0.265625c-0.1074219,0.2543945,0.0112305,0.5478516,0.265625,0.6552734   c0.9682617,0.4091797,1.8496094,0.8549805,2.6201172,1.324707c0.0810547,0.0498047,0.1708984,0.0732422,0.2597656,0.0732422   c0.168457,0,0.3330078-0.0849609,0.4272461-0.2397461C56.5874023,28.0507813,56.5126953,27.7431641,56.2768555,27.5996094z" />
    <path d="M12.5844727,32.6210938c0.1762695-0.7973633,0.6293945-1.5878906,1.3466797-2.3496094   c0.1894531-0.2011719,0.1801758-0.5175781-0.0209961-0.706543c-0.2011719-0.1894531-0.5175781-0.1806641-0.706543,0.0209961   c-0.8427734,0.8945313-1.3798828,1.8432617-1.5957031,2.8193359c-0.0595703,0.2695313,0.1108398,0.5366211,0.3803711,0.5961914   c0.0361328,0.0078125,0.0727539,0.0117188,0.1083984,0.0117188C12.3261719,33.0131836,12.5327148,32.8544922,12.5844727,32.6210938   z" />
    <path d="M12.9672852,35.1889648c-0.128418-0.2436523-0.4296875-0.3388672-0.675293-0.2094727   c-0.2441406,0.128418-0.3383789,0.4306641-0.2094727,0.675293c0.4438477,0.8442383,1.140625,1.6591797,2.0708008,2.421875   c0.0927734,0.0761719,0.2050781,0.1132813,0.3164063,0.1132813c0.1450195,0,0.2880859-0.0625,0.387207-0.1831055   c0.1748047-0.2133789,0.144043-0.5283203-0.0698242-0.7036133C13.9609375,36.6259766,13.3491211,35.9145508,12.9672852,35.1889648z   " />
    <path d="M58.7436523,29.5302734c-0.190918-0.1982422-0.5073242-0.2050781-0.7070313-0.0146484   c-0.1992188,0.190918-0.2060547,0.5073242-0.0146484,0.7070313c0.7250977,0.7568359,1.1889648,1.5429688,1.3789063,2.3369141   c0.0546875,0.2294922,0.2597656,0.3837891,0.4858398,0.3837891c0.0385742,0,0.0776367-0.0043945,0.1166992-0.0136719   c0.2685547-0.0639648,0.434082-0.3339844,0.3701172-0.6025391C60.1420898,31.3583984,59.59375,30.4174805,58.7436523,29.5302734z" />
    <path d="M59.734375,34.9121094c-0.2475586-0.125-0.546875-0.0268555-0.6723633,0.2192383   c-0.3706055,0.7299805-0.9755859,1.4462891-1.796875,2.128418c-0.2124023,0.1767578-0.2416992,0.4916992-0.0654297,0.7041016   c0.0991211,0.1191406,0.2416992,0.1806641,0.3852539,0.1806641c0.1123047,0,0.2255859-0.0375977,0.3188477-0.1152344   c0.9272461-0.7700195,1.6166992-1.5927734,2.0498047-2.4448242C60.0786133,35.3378906,59.9804688,35.0371094,59.734375,34.9121094z   " />
    <path d="M19.0625,26.5c-0.1083984-0.2548828-0.4008789-0.3730469-0.6557617-0.2641602   c-1.0141602,0.4321289-1.9379883,0.9038086-2.7470703,1.4033203c-0.2348633,0.1450195-0.3076172,0.453125-0.1625977,0.6879883   c0.0942383,0.152832,0.2583008,0.2373047,0.4257813,0.2373047c0.0893555,0,0.1801758-0.0239258,0.262207-0.074707   c0.7661133-0.4726563,1.6455078-0.9213867,2.6132813-1.3339844C19.0527344,27.0473633,19.1708984,26.7539063,19.0625,26.5z" />
    <path d="M19.9228516,40.0737305c-0.9804688-0.3657227-1.8881836-0.7666016-2.6967773-1.190918   c-0.2446289-0.128418-0.546875-0.0341797-0.675293,0.2104492s-0.0341797,0.546875,0.2104492,0.675293   c0.8461914,0.4438477,1.7924805,0.8618164,2.8120117,1.2416992c0.0576172,0.0214844,0.1166992,0.0317383,0.1748047,0.0317383   c0.2026367,0,0.3935547-0.1240234,0.4682617-0.3251953C20.3129883,40.4580078,20.1816406,40.1699219,19.9228516,40.0737305z" />
    <path d="M43.4804688,42.1235352c-0.9711914,0.1303711-1.9702148,0.2353516-2.9682617,0.3125   c-0.2753906,0.0214844-0.4814453,0.2617188-0.4599609,0.5371094c0.0205078,0.262207,0.2392578,0.4614258,0.4980469,0.4614258   c0.0126953,0,0.0258789-0.0004883,0.0390625-0.0014648c1.0166016-0.0786133,2.0341797-0.1855469,3.0239258-0.3183594   c0.2739258-0.0366211,0.4658203-0.2885742,0.4291992-0.5620117S43.7543945,42.0883789,43.4804688,42.1235352z" />
    <path d="M28.4580078,43.1240234c0.9838867,0.1308594,2.0014648,0.2368164,3.0244141,0.3149414   c0.0131836,0.0009766,0.0258789,0.0014648,0.0385742,0.0014648c0.2587891,0,0.4780273-0.199707,0.4980469-0.4619141   c0.0209961-0.2753906-0.1850586-0.515625-0.4604492-0.5366211c-1.0043945-0.0766602-2.003418-0.1806641-2.96875-0.309082   c-0.2758789-0.0336914-0.5253906,0.1557617-0.5615234,0.4296875C27.9916992,42.8364258,28.184082,43.0874023,28.4580078,43.1240234   z" />
    <path d="M21.6357422,26.1269531c0.4619141-0.1416016,0.9365234-0.2768555,1.4233398-0.4057617   c0.2670898-0.0703125,0.4262695-0.3442383,0.355957-0.6108398c-0.0703125-0.2675781-0.3457031-0.4243164-0.6108398-0.355957   c-0.5004883,0.1318359-0.987793,0.2709961-1.4614258,0.4165039c-0.2641602,0.0810547-0.4125977,0.3608398-0.331543,0.6245117   c0.065918,0.215332,0.2641602,0.3535156,0.4780273,0.3535156C21.5375977,26.1489258,21.5869141,26.1420898,21.6357422,26.1269531z" />
  </g>
</svg>