<svg width="20" height="12" viewBox="0 0 20 12" fill="currentColor" xmlns="http://www.w3.org/2000/svg">
<path d="M2.82499 6.02499L6.69999 9.89999C6.88332 10.0833 6.97499 10.3167 6.97499 10.6C6.97499 10.8833 6.88332 11.1167 6.69999 11.3C6.51665 11.4833 6.28332 11.575 5.99999 11.575C5.71665 11.575 5.48332 11.4833 5.29999 11.3L0.699988 6.69999C0.599988 6.59999 0.529154 6.49166 0.487488 6.37499C0.445821 6.25833 0.424988 6.13333 0.424988 5.99999C0.424988 5.86666 0.445821 5.74166 0.487488 5.62499C0.529154 5.50833 0.599988 5.39999 0.699988 5.29999L5.29999 0.699994C5.49999 0.499994 5.73749 0.399994 6.01249 0.399994C6.28749 0.399994 6.52499 0.499994 6.72499 0.699994C6.92499 0.899994 7.02499 1.13749 7.02499 1.41249C7.02499 1.68749 6.92499 1.92499 6.72499 2.12499L2.82499 6.02499ZM17.175 5.97499L13.3 2.09999C13.1167 1.91666 13.025 1.68333 13.025 1.39999C13.025 1.11666 13.1167 0.883327 13.3 0.699994C13.4833 0.516661 13.7167 0.424994 14 0.424994C14.2833 0.424994 14.5167 0.516661 14.7 0.699994L19.3 5.29999C19.4 5.39999 19.4708 5.50833 19.5125 5.62499C19.5542 5.74166 19.575 5.86666 19.575 5.99999C19.575 6.13333 19.5542 6.25833 19.5125 6.37499C19.4708 6.49166 19.4 6.59999 19.3 6.69999L14.7 11.3C14.5 11.5 14.2667 11.5958 14 11.5875C13.7333 11.5792 13.5 11.475 13.3 11.275C13.1 11.075 13 10.8375 13 10.5625C13 10.2875 13.1 10.05 13.3 9.84999L17.175 5.97499Z" fill="#CCCCCC"/>
</svg>
