<svg width="18" height="18" viewBox="0 0 18 18" fill="currentColor" xmlns="http://www.w3.org/2000/svg">
<path d="M2 16H16V6.825L11.175 2H2V16ZM2 18C1.45 18 0.979167 17.8042 0.5875 17.4125C0.195833 17.0208 0 16.55 0 16V2C0 1.45 0.195833 0.979167 0.5875 0.5875C0.979167 0.195833 1.45 0 2 0H11.175C11.4417 0 11.6958 0.05 11.9375 0.15C12.1792 0.25 12.3917 0.391667 12.575 0.575L17.425 5.425C17.6083 5.60833 17.75 5.82083 17.85 6.0625C17.95 6.30417 18 6.55833 18 6.825V16C18 16.55 17.8042 17.0208 17.4125 17.4125C17.0208 17.8042 16.55 18 16 18H2ZM5 14H13C13.2833 14 13.5208 13.9042 13.7125 13.7125C13.9042 13.5208 14 13.2833 14 13C14 12.7167 13.9042 12.4792 13.7125 12.2875C13.5208 12.0958 13.2833 12 13 12H5C4.71667 12 4.47917 12.0958 4.2875 12.2875C4.09583 12.4792 4 12.7167 4 13C4 13.2833 4.09583 13.5208 4.2875 13.7125C4.47917 13.9042 4.71667 14 5 14ZM5 10H13C13.2833 10 13.5208 9.90417 13.7125 9.7125C13.9042 9.52083 14 9.28333 14 9C14 8.71667 13.9042 8.47917 13.7125 8.2875C13.5208 8.09583 13.2833 8 13 8H5C4.71667 8 4.47917 8.09583 4.2875 8.2875C4.09583 8.47917 4 8.71667 4 9C4 9.28333 4.09583 9.52083 4.2875 9.7125C4.47917 9.90417 4.71667 10 5 10ZM5 6H10C10.2833 6 10.5208 5.90417 10.7125 5.7125C10.9042 5.52083 11 5.28333 11 5C11 4.71667 10.9042 4.47917 10.7125 4.2875C10.5208 4.09583 10.2833 4 10 4H5C4.71667 4 4.47917 4.09583 4.2875 4.2875C4.09583 4.47917 4 4.71667 4 5C4 5.28333 4.09583 5.52083 4.2875 5.7125C4.47917 5.90417 4.71667 6 5 6Z" fill="#CCCCCC"/>
</svg>
