<svg width="15" height="18" viewBox="0 0 15 18" fill="currentColor" xmlns="http://www.w3.org/2000/svg">
<path d="M1.8 18C1.305 18 0.88125 17.8238 0.52875 17.4713C0.17625 17.1188 0 16.695 0 16.2V1.8C0 1.305 0.17625 0.88125 0.52875 0.52875C0.88125 0.17625 1.305 0 1.8 0H9.0675C9.3375 0 9.5925 0.05625 9.8325 0.16875C10.0725 0.28125 10.275 0.4425 10.44 0.6525L13.9725 4.905C14.1075 5.07 14.2125 5.25 14.2875 5.445C14.3625 5.64 14.4 5.8425 14.4 6.0525V16.2C14.4 16.605 14.2162 16.8825 13.8487 17.0325C13.4812 17.1825 13.155 17.115 12.87 16.83L9 13.005C8.745 13.17 8.4675 13.2938 8.1675 13.3763C7.8675 13.4588 7.545 13.5 7.2 13.5C6.21 13.5 5.3625 13.1475 4.6575 12.4425C3.9525 11.7375 3.6 10.89 3.6 9.9C3.6 8.91 3.9525 8.0625 4.6575 7.3575C5.3625 6.6525 6.21 6.3 7.2 6.3C8.19 6.3 9.0375 6.6525 9.7425 7.3575C10.4475 8.0625 10.8 8.91 10.8 9.9C10.8 10.245 10.7587 10.5675 10.6762 10.8675C10.5938 11.1675 10.47 11.445 10.305 11.7L12.6 14.04V6.03L9.045 1.8H1.8V16.2H9.2925C9.5925 16.2 9.8175 16.2938 9.9675 16.4813C10.1175 16.6688 10.1925 16.875 10.1925 17.1C10.1925 17.325 10.1175 17.5312 9.9675 17.7188C9.8175 17.9062 9.5925 18 9.2925 18H1.8ZM7.2 11.7C7.695 11.7 8.11875 11.5238 8.47125 11.1713C8.82375 10.8188 9 10.395 9 9.9C9 9.405 8.82375 8.98125 8.47125 8.62875C8.11875 8.27625 7.695 8.1 7.2 8.1C6.705 8.1 6.28125 8.27625 5.92875 8.62875C5.57625 8.98125 5.4 9.405 5.4 9.9C5.4 10.395 5.57625 10.8188 5.92875 11.1713C6.28125 11.5238 6.705 11.7 7.2 11.7Z" fill="#CCCCCC"/>
</svg>
