<svg width="20" height="16" viewBox="0 0 20 16" fill="currentColor" xmlns="http://www.w3.org/2000/svg">
<path d="M2 16C1.45 16 0.979167 15.8042 0.5875 15.4125C0.195833 15.0208 0 14.55 0 14V2C0 1.45 0.195833 0.979167 0.5875 0.5875C0.979167 0.195833 1.45 0 2 0H18C18.55 0 19.0208 0.195833 19.4125 0.5875C19.8042 0.979167 20 1.45 20 2V14C20 14.55 19.8042 15.0208 19.4125 15.4125C19.0208 15.8042 18.55 16 18 16H2ZM2 14H18V4H2V14ZM6.675 9L4.775 7.1C4.575 6.9 4.47917 6.66667 4.4875 6.4C4.49583 6.13333 4.6 5.9 4.8 5.7C5 5.51667 5.23333 5.42083 5.5 5.4125C5.76667 5.40417 6 5.5 6.2 5.7L8.8 8.3C9 8.5 9.1 8.73333 9.1 9C9.1 9.26667 9 9.5 8.8 9.7L6.2 12.3C6.01667 12.4833 5.7875 12.5792 5.5125 12.5875C5.2375 12.5958 5 12.5 4.8 12.3C4.61667 12.1167 4.525 11.8833 4.525 11.6C4.525 11.3167 4.61667 11.0833 4.8 10.9L6.675 9ZM11 13C10.7167 13 10.4792 12.9042 10.2875 12.7125C10.0958 12.5208 10 12.2833 10 12C10 11.7167 10.0958 11.4792 10.2875 11.2875C10.4792 11.0958 10.7167 11 11 11H15C15.2833 11 15.5208 11.0958 15.7125 11.2875C15.9042 11.4792 16 11.7167 16 12C16 12.2833 15.9042 12.5208 15.7125 12.7125C15.5208 12.9042 15.2833 13 15 13H11Z" fill="#CCCCCC"/>
</svg>
