<svg id="Layer_1" data-name="Layer 1" xmlns="http://www.w3.org/2000/svg" viewBox="0 0 1267 587"><defs><style>.cls-1,.cls-5,.cls-6,.cls-7{fill:#a6a7a9;}.cls-1,.cls-8{opacity:0.2;}.cls-2,.cls-3,.cls-4,.cls-8{fill:#6c757d;}.cls-2{opacity:0.24;}.cls-10,.cls-11,.cls-2,.cls-3,.cls-4,.cls-8,.cls-9{isolation:isolate;}.cls-3{opacity:0.08;}.cls-4{opacity:0.34;}.cls-5{opacity:0.1;}.cls-6{opacity:0.05;}.cls-7{opacity:0.25;}.cls-9{fill:#499cef;}.cls-10{fill:#ff6d04;}.cls-11{fill:#6d04ff;}</style></defs><title>header_dark_fancy3</title><rect class="cls-1" x="1226.24" y="0.65" width="40.41" height="40.41"/><rect class="cls-2" y="336.43" width="40.41" height="40.41"/><rect class="cls-3" x="0.36" y="0.65" width="40.41" height="40.41"/><rect class="cls-4" x="40.76" y="41.06" width="40.41" height="40.41"/><rect class="cls-5" x="156.82" y="479.31" width="40.41" height="40.41"/><rect class="cls-1" x="470.42" y="506.18" width="40.41" height="40.41"/><rect class="cls-2" x="815.05" y="418.7" width="40.41" height="40.41"/><rect class="cls-3" x="855.45" y="459.11" width="40.41" height="40.41"/><rect class="cls-4" x="1145.55" y="506.18" width="40.41" height="40.41"/><rect class="cls-5" x="430.01" y="546.59" width="40.41" height="40.41"/><rect class="cls-3" x="1226.24" y="81.47" width="40.41" height="40.41"/><rect class="cls-6" x="913.33" width="40.41" height="40.41"/><rect class="cls-7" x="0.36" y="81.47" width="40.41" height="40.41"/><rect class="cls-8" x="608.92" y="41.06" width="40.41" height="40.41"/><rect class="cls-3" x="121.58" y="0.65" width="40.41" height="40.41"/><rect class="cls-3" x="1185.96" y="546.59" width="40.41" height="40.41"/><rect class="cls-3" x="1185.06" y="41.06" width="40.41" height="40.41"/><rect class="cls-2" x="1226.24" y="41.06" width="40.41" height="40.41" transform="translate(2492.88 122.53) rotate(-180)"/><rect class="cls-6" x="1226.04" y="506.18" width="40.41" height="40.41"/><rect class="cls-9" x="583.78" y="381.78" width="20.2" height="20.2"/><rect class="cls-10" x="1138.4" y="40.41" width="20.2" height="20.2"/><rect class="cls-11" x="84.69" y="84.99" width="20.2" height="20.2"/></svg>